<svg width="15" height="15" viewBox="0 0 15 15" fill="none" xmlns="http://www.w3.org/2000/svg">
<path d="M6.49904 0.5691C6.86127 -0.190022 7.94183 -0.190022 8.30407 0.5691L9.77484 3.65134C9.92062 3.95685 10.2111 4.16787 10.5467 4.2121L13.9325 4.65843C14.7664 4.76835 15.1004 5.79602 14.4903 6.37511L12.0134 8.72636C11.7679 8.95941 11.657 9.30085 11.7186 9.6337L12.3404 12.9918C12.4936 13.8188 11.6194 14.454 10.8801 14.0527L7.87857 12.4237C7.58105 12.2622 7.22205 12.2622 6.92454 12.4237L3.92296 14.0527C3.18371 14.454 2.30952 13.8188 2.46266 12.9918L3.08448 9.6337C3.14611 9.30085 3.03518 8.95941 2.78967 8.72636L0.312779 6.37511C-0.297252 5.79602 0.0366591 4.76835 0.870564 4.65843L4.25644 4.2121C4.59204 4.16787 4.88249 3.95685 5.02827 3.65134L6.49904 0.5691Z" fill="#dddddd"/>
</svg>
